<mxfile host="app.diagrams.net" modified="2024-02-02T20:03:28.873Z" agent="Mozilla/5.0 (Windows NT 10.0; Win64; x64) AppleWebKit/537.36 (KHTML, like Gecko) Chrome/121.0.0.0 Safari/537.36" etag="Aoa7VuB-adfRQP6dyyix" version="23.1.1" type="device">
  <diagram id="zswZliid3HpIubpjJQuO" name="Page-1">
    <mxGraphModel dx="1434" dy="746" grid="1" gridSize="10" guides="1" tooltips="1" connect="1" arrows="1" fold="1" page="1" pageScale="1" pageWidth="1100" pageHeight="850" background="#ffffff" math="0" shadow="0">
      <root>
        <mxCell id="0" />
        <mxCell id="1" parent="0" />
        <mxCell id="ItJltLnS_OSCUUUxYvK8-10" value="&lt;font style=&quot;font-size: 20px;&quot;&gt;summary&lt;/font&gt;" style="rounded=0;whiteSpace=wrap;html=1;" parent="1" vertex="1">
          <mxGeometry width="660" height="60" as="geometry" />
        </mxCell>
        <mxCell id="H_drZzRzeJkwArdPm9RS-2" style="edgeStyle=orthogonalEdgeStyle;rounded=0;orthogonalLoop=1;jettySize=auto;html=1;exitX=-0.004;exitY=0.027;exitDx=0;exitDy=0;entryX=1;entryY=0.5;entryDx=0;entryDy=0;exitPerimeter=0;" parent="1" source="zT3ZHp9hSMFfmm2dRahb-4" target="H_drZzRzeJkwArdPm9RS-1" edge="1">
          <mxGeometry relative="1" as="geometry">
            <mxPoint x="924" y="-20" as="sourcePoint" />
            <Array as="points">
              <mxPoint x="820" y="17" />
              <mxPoint x="820" y="300" />
            </Array>
          </mxGeometry>
        </mxCell>
        <mxCell id="zT3ZHp9hSMFfmm2dRahb-4" value="entries" style="swimlane;fontStyle=0;childLayout=stackLayout;horizontal=1;startSize=26;fillColor=none;horizontalStack=0;resizeParent=1;resizeParentMax=0;resizeLast=0;collapsible=1;marginBottom=0;fontSize=20;fontColor=#000000;" parent="1" vertex="1">
          <mxGeometry x="850" width="240" height="624" as="geometry">
            <mxRectangle x="854" y="130" width="70" height="30" as="alternateBounds" />
          </mxGeometry>
        </mxCell>
        <mxCell id="zT3ZHp9hSMFfmm2dRahb-5" value="id: INTEGER PRIMARY KEY" style="text;strokeColor=none;fillColor=none;align=left;verticalAlign=top;spacingLeft=4;spacingRight=4;overflow=hidden;rotatable=0;points=[[0,0.5],[1,0.5]];portConstraint=eastwest;fontSize=12;fontColor=#000000;" parent="zT3ZHp9hSMFfmm2dRahb-4" vertex="1">
          <mxGeometry y="26" width="240" height="26" as="geometry" />
        </mxCell>
        <mxCell id="zT3ZHp9hSMFfmm2dRahb-8" value="name: TEXT" style="text;strokeColor=none;fillColor=none;align=left;verticalAlign=top;spacingLeft=4;spacingRight=4;overflow=hidden;rotatable=0;points=[[0,0.5],[1,0.5]];portConstraint=eastwest;fontSize=12;fontColor=#000000;" parent="zT3ZHp9hSMFfmm2dRahb-4" vertex="1">
          <mxGeometry y="52" width="240" height="26" as="geometry" />
        </mxCell>
        <mxCell id="zT3ZHp9hSMFfmm2dRahb-6" value="type: TEXT" style="text;strokeColor=none;fillColor=none;align=left;verticalAlign=top;spacingLeft=4;spacingRight=4;overflow=hidden;rotatable=0;points=[[0,0.5],[1,0.5]];portConstraint=eastwest;fontSize=12;fontColor=#000000;" parent="zT3ZHp9hSMFfmm2dRahb-4" vertex="1">
          <mxGeometry y="78" width="240" height="26" as="geometry" />
        </mxCell>
        <mxCell id="zT3ZHp9hSMFfmm2dRahb-7" value="inode: TEXT" style="text;strokeColor=none;fillColor=none;align=left;verticalAlign=top;spacingLeft=4;spacingRight=4;overflow=hidden;rotatable=0;points=[[0,0.5],[1,0.5]];portConstraint=eastwest;fontSize=12;fontColor=#000000;" parent="zT3ZHp9hSMFfmm2dRahb-4" vertex="1">
          <mxGeometry y="104" width="240" height="26" as="geometry" />
        </mxCell>
        <mxCell id="zT3ZHp9hSMFfmm2dRahb-9" value="mode: INT64" style="text;strokeColor=none;fillColor=none;align=left;verticalAlign=top;spacingLeft=4;spacingRight=4;overflow=hidden;rotatable=0;points=[[0,0.5],[1,0.5]];portConstraint=eastwest;fontSize=12;fontColor=#000000;" parent="zT3ZHp9hSMFfmm2dRahb-4" vertex="1">
          <mxGeometry y="130" width="240" height="26" as="geometry" />
        </mxCell>
        <mxCell id="zT3ZHp9hSMFfmm2dRahb-10" value="nlink: INT64" style="text;strokeColor=none;fillColor=none;align=left;verticalAlign=top;spacingLeft=4;spacingRight=4;overflow=hidden;rotatable=0;points=[[0,0.5],[1,0.5]];portConstraint=eastwest;fontSize=12;fontColor=#000000;" parent="zT3ZHp9hSMFfmm2dRahb-4" vertex="1">
          <mxGeometry y="156" width="240" height="26" as="geometry" />
        </mxCell>
        <mxCell id="zT3ZHp9hSMFfmm2dRahb-11" value="uid: INT64" style="text;strokeColor=none;fillColor=none;align=left;verticalAlign=top;spacingLeft=4;spacingRight=4;overflow=hidden;rotatable=0;points=[[0,0.5],[1,0.5]];portConstraint=eastwest;fontSize=12;fontColor=#000000;" parent="zT3ZHp9hSMFfmm2dRahb-4" vertex="1">
          <mxGeometry y="182" width="240" height="26" as="geometry" />
        </mxCell>
        <mxCell id="zT3ZHp9hSMFfmm2dRahb-12" value="gid: INT64" style="text;strokeColor=none;fillColor=none;align=left;verticalAlign=top;spacingLeft=4;spacingRight=4;overflow=hidden;rotatable=0;points=[[0,0.5],[1,0.5]];portConstraint=eastwest;fontSize=12;fontColor=#000000;" parent="zT3ZHp9hSMFfmm2dRahb-4" vertex="1">
          <mxGeometry y="208" width="240" height="26" as="geometry" />
        </mxCell>
        <mxCell id="zT3ZHp9hSMFfmm2dRahb-13" value="size: INT64" style="text;strokeColor=none;fillColor=none;align=left;verticalAlign=top;spacingLeft=4;spacingRight=4;overflow=hidden;rotatable=0;points=[[0,0.5],[1,0.5]];portConstraint=eastwest;fontSize=12;fontColor=#000000;" parent="zT3ZHp9hSMFfmm2dRahb-4" vertex="1">
          <mxGeometry y="234" width="240" height="26" as="geometry" />
        </mxCell>
        <mxCell id="zT3ZHp9hSMFfmm2dRahb-14" value="blksize: INT64" style="text;strokeColor=none;fillColor=none;align=left;verticalAlign=top;spacingLeft=4;spacingRight=4;overflow=hidden;rotatable=0;points=[[0,0.5],[1,0.5]];portConstraint=eastwest;fontSize=12;fontColor=#000000;" parent="zT3ZHp9hSMFfmm2dRahb-4" vertex="1">
          <mxGeometry y="260" width="240" height="26" as="geometry" />
        </mxCell>
        <mxCell id="zT3ZHp9hSMFfmm2dRahb-15" value="blocks: INT64" style="text;strokeColor=none;fillColor=none;align=left;verticalAlign=top;spacingLeft=4;spacingRight=4;overflow=hidden;rotatable=0;points=[[0,0.5],[1,0.5]];portConstraint=eastwest;fontSize=12;fontColor=#000000;" parent="zT3ZHp9hSMFfmm2dRahb-4" vertex="1">
          <mxGeometry y="286" width="240" height="26" as="geometry" />
        </mxCell>
        <mxCell id="zT3ZHp9hSMFfmm2dRahb-16" value="atime: INT64" style="text;strokeColor=none;fillColor=none;align=left;verticalAlign=top;spacingLeft=4;spacingRight=4;overflow=hidden;rotatable=0;points=[[0,0.5],[1,0.5]];portConstraint=eastwest;fontSize=12;fontColor=#000000;" parent="zT3ZHp9hSMFfmm2dRahb-4" vertex="1">
          <mxGeometry y="312" width="240" height="26" as="geometry" />
        </mxCell>
        <mxCell id="zT3ZHp9hSMFfmm2dRahb-17" value="mtime: INT64" style="text;strokeColor=none;fillColor=none;align=left;verticalAlign=top;spacingLeft=4;spacingRight=4;overflow=hidden;rotatable=0;points=[[0,0.5],[1,0.5]];portConstraint=eastwest;fontSize=12;fontColor=#000000;" parent="zT3ZHp9hSMFfmm2dRahb-4" vertex="1">
          <mxGeometry y="338" width="240" height="26" as="geometry" />
        </mxCell>
        <mxCell id="zT3ZHp9hSMFfmm2dRahb-18" value="ctime: INT64" style="text;strokeColor=none;fillColor=none;align=left;verticalAlign=top;spacingLeft=4;spacingRight=4;overflow=hidden;rotatable=0;points=[[0,0.5],[1,0.5]];portConstraint=eastwest;fontSize=12;fontColor=#000000;" parent="zT3ZHp9hSMFfmm2dRahb-4" vertex="1">
          <mxGeometry y="364" width="240" height="26" as="geometry" />
        </mxCell>
        <mxCell id="zT3ZHp9hSMFfmm2dRahb-19" value="linkname: TEXT" style="text;strokeColor=none;fillColor=none;align=left;verticalAlign=top;spacingLeft=4;spacingRight=4;overflow=hidden;rotatable=0;points=[[0,0.5],[1,0.5]];portConstraint=eastwest;fontSize=12;fontColor=#000000;" parent="zT3ZHp9hSMFfmm2dRahb-4" vertex="1">
          <mxGeometry y="390" width="240" height="26" as="geometry" />
        </mxCell>
        <mxCell id="zT3ZHp9hSMFfmm2dRahb-20" value="xattr_names: BLOB" style="text;strokeColor=none;fillColor=none;align=left;verticalAlign=top;spacingLeft=4;spacingRight=4;overflow=hidden;rotatable=0;points=[[0,0.5],[1,0.5]];portConstraint=eastwest;fontSize=12;fontColor=#000000;" parent="zT3ZHp9hSMFfmm2dRahb-4" vertex="1">
          <mxGeometry y="416" width="240" height="26" as="geometry" />
        </mxCell>
        <mxCell id="zT3ZHp9hSMFfmm2dRahb-21" value="crtime: INT64" style="text;strokeColor=none;fillColor=none;align=left;verticalAlign=top;spacingLeft=4;spacingRight=4;overflow=hidden;rotatable=0;points=[[0,0.5],[1,0.5]];portConstraint=eastwest;fontSize=12;fontColor=#000000;" parent="zT3ZHp9hSMFfmm2dRahb-4" vertex="1">
          <mxGeometry y="442" width="240" height="26" as="geometry" />
        </mxCell>
        <mxCell id="zT3ZHp9hSMFfmm2dRahb-22" value="ossint1: INT64" style="text;strokeColor=none;fillColor=none;align=left;verticalAlign=top;spacingLeft=4;spacingRight=4;overflow=hidden;rotatable=0;points=[[0,0.5],[1,0.5]];portConstraint=eastwest;fontSize=12;fontColor=#000000;" parent="zT3ZHp9hSMFfmm2dRahb-4" vertex="1">
          <mxGeometry y="468" width="240" height="26" as="geometry" />
        </mxCell>
        <mxCell id="zT3ZHp9hSMFfmm2dRahb-23" value="ossint2: INT64" style="text;strokeColor=none;fillColor=none;align=left;verticalAlign=top;spacingLeft=4;spacingRight=4;overflow=hidden;rotatable=0;points=[[0,0.5],[1,0.5]];portConstraint=eastwest;fontSize=12;fontColor=#000000;" parent="zT3ZHp9hSMFfmm2dRahb-4" vertex="1">
          <mxGeometry y="494" width="240" height="26" as="geometry" />
        </mxCell>
        <mxCell id="zT3ZHp9hSMFfmm2dRahb-24" value="ossint3: INT64" style="text;strokeColor=none;fillColor=none;align=left;verticalAlign=top;spacingLeft=4;spacingRight=4;overflow=hidden;rotatable=0;points=[[0,0.5],[1,0.5]];portConstraint=eastwest;fontSize=12;fontColor=#000000;" parent="zT3ZHp9hSMFfmm2dRahb-4" vertex="1">
          <mxGeometry y="520" width="240" height="26" as="geometry" />
        </mxCell>
        <mxCell id="zT3ZHp9hSMFfmm2dRahb-25" value="ossint4: INT64" style="text;strokeColor=none;fillColor=none;align=left;verticalAlign=top;spacingLeft=4;spacingRight=4;overflow=hidden;rotatable=0;points=[[0,0.5],[1,0.5]];portConstraint=eastwest;fontSize=12;fontColor=#000000;" parent="zT3ZHp9hSMFfmm2dRahb-4" vertex="1">
          <mxGeometry y="546" width="240" height="26" as="geometry" />
        </mxCell>
        <mxCell id="zT3ZHp9hSMFfmm2dRahb-26" value="osstext1: TEXT" style="text;strokeColor=none;fillColor=none;align=left;verticalAlign=top;spacingLeft=4;spacingRight=4;overflow=hidden;rotatable=0;points=[[0,0.5],[1,0.5]];portConstraint=eastwest;fontSize=12;fontColor=#000000;" parent="zT3ZHp9hSMFfmm2dRahb-4" vertex="1">
          <mxGeometry y="572" width="240" height="26" as="geometry" />
        </mxCell>
        <mxCell id="zT3ZHp9hSMFfmm2dRahb-27" value="osstext2: TEXT" style="text;strokeColor=none;fillColor=none;align=left;verticalAlign=top;spacingLeft=4;spacingRight=4;overflow=hidden;rotatable=0;points=[[0,0.5],[1,0.5]];portConstraint=eastwest;fontSize=12;fontColor=#000000;" parent="zT3ZHp9hSMFfmm2dRahb-4" vertex="1">
          <mxGeometry y="598" width="240" height="26" as="geometry" />
        </mxCell>
        <mxCell id="CGvsTR9XaRbPzgTNPZg9-32" value="" style="shape=table;html=1;whiteSpace=wrap;startSize=0;container=1;collapsible=0;childLayout=tableLayout;columnLines=0;rowLines=0;fontColor=#000000;" parent="1" vertex="1">
          <mxGeometry y="60" width="660" height="420" as="geometry" />
        </mxCell>
        <mxCell id="CGvsTR9XaRbPzgTNPZg9-33" value="" style="shape=tableRow;horizontal=0;startSize=0;swimlaneHead=0;swimlaneBody=0;top=0;left=0;bottom=0;right=0;collapsible=0;dropTarget=0;fillColor=none;points=[[0,0.5],[1,0.5]];portConstraint=eastwest;fontColor=#000000;" parent="CGvsTR9XaRbPzgTNPZg9-32" vertex="1">
          <mxGeometry width="660" height="42" as="geometry" />
        </mxCell>
        <mxCell id="CGvsTR9XaRbPzgTNPZg9-34" value="id: IPK" style="shape=partialRectangle;html=1;whiteSpace=wrap;connectable=0;fillColor=none;top=0;left=0;bottom=0;right=0;overflow=hidden;fontSize=12;fontColor=#000000;" parent="CGvsTR9XaRbPzgTNPZg9-33" vertex="1">
          <mxGeometry width="107" height="42" as="geometry">
            <mxRectangle width="107" height="42" as="alternateBounds" />
          </mxGeometry>
        </mxCell>
        <mxCell id="CGvsTR9XaRbPzgTNPZg9-35" value="name: TEXT" style="shape=partialRectangle;html=1;whiteSpace=wrap;connectable=0;fillColor=none;top=0;left=0;bottom=0;right=0;overflow=hidden;fontSize=12;fontColor=#000000;" parent="CGvsTR9XaRbPzgTNPZg9-33" vertex="1">
          <mxGeometry x="107" width="106" height="42" as="geometry">
            <mxRectangle width="106" height="42" as="alternateBounds" />
          </mxGeometry>
        </mxCell>
        <mxCell id="CGvsTR9XaRbPzgTNPZg9-36" value="type: TEXT " style="shape=partialRectangle;html=1;whiteSpace=wrap;connectable=0;fillColor=none;top=0;left=0;bottom=0;right=0;overflow=hidden;fontSize=12;fontColor=#000000;" parent="CGvsTR9XaRbPzgTNPZg9-33" vertex="1">
          <mxGeometry x="213" width="117" height="42" as="geometry">
            <mxRectangle width="117" height="42" as="alternateBounds" />
          </mxGeometry>
        </mxCell>
        <mxCell id="CGvsTR9XaRbPzgTNPZg9-104" value="inode: TEXT" style="shape=partialRectangle;html=1;whiteSpace=wrap;connectable=0;fillColor=none;top=0;left=0;bottom=0;right=0;overflow=hidden;fontSize=12;fontColor=#000000;" parent="CGvsTR9XaRbPzgTNPZg9-33" vertex="1">
          <mxGeometry x="330" width="107" height="42" as="geometry">
            <mxRectangle width="107" height="42" as="alternateBounds" />
          </mxGeometry>
        </mxCell>
        <mxCell id="CGvsTR9XaRbPzgTNPZg9-112" value="mode: INT64" style="shape=partialRectangle;html=1;whiteSpace=wrap;connectable=0;fillColor=none;top=0;left=0;bottom=0;right=0;overflow=hidden;fontSize=12;fontColor=#000000;" parent="CGvsTR9XaRbPzgTNPZg9-33" vertex="1">
          <mxGeometry x="437" width="106" height="42" as="geometry">
            <mxRectangle width="106" height="42" as="alternateBounds" />
          </mxGeometry>
        </mxCell>
        <mxCell id="CGvsTR9XaRbPzgTNPZg9-120" value="nlink: INT64" style="shape=partialRectangle;html=1;whiteSpace=wrap;connectable=0;fillColor=none;top=0;left=0;bottom=0;right=0;overflow=hidden;fontSize=12;fontColor=#000000;" parent="CGvsTR9XaRbPzgTNPZg9-33" vertex="1">
          <mxGeometry x="543" width="117" height="42" as="geometry">
            <mxRectangle width="117" height="42" as="alternateBounds" />
          </mxGeometry>
        </mxCell>
        <mxCell id="CGvsTR9XaRbPzgTNPZg9-37" value="" style="shape=tableRow;horizontal=0;startSize=0;swimlaneHead=0;swimlaneBody=0;top=0;left=0;bottom=0;right=0;collapsible=0;dropTarget=0;fillColor=none;points=[[0,0.5],[1,0.5]];portConstraint=eastwest;fontColor=#000000;" parent="CGvsTR9XaRbPzgTNPZg9-32" vertex="1">
          <mxGeometry y="42" width="660" height="42" as="geometry" />
        </mxCell>
        <mxCell id="CGvsTR9XaRbPzgTNPZg9-38" value="uid: INT64" style="shape=partialRectangle;html=1;whiteSpace=wrap;connectable=0;fillColor=none;top=0;left=0;bottom=0;right=0;overflow=hidden;fontSize=12;fontColor=#000000;" parent="CGvsTR9XaRbPzgTNPZg9-37" vertex="1">
          <mxGeometry width="107" height="42" as="geometry">
            <mxRectangle width="107" height="42" as="alternateBounds" />
          </mxGeometry>
        </mxCell>
        <mxCell id="CGvsTR9XaRbPzgTNPZg9-39" value="gid: INT64" style="shape=partialRectangle;html=1;whiteSpace=wrap;connectable=0;fillColor=none;top=0;left=0;bottom=0;right=0;overflow=hidden;fontSize=12;fontColor=#000000;" parent="CGvsTR9XaRbPzgTNPZg9-37" vertex="1">
          <mxGeometry x="107" width="106" height="42" as="geometry">
            <mxRectangle width="106" height="42" as="alternateBounds" />
          </mxGeometry>
        </mxCell>
        <mxCell id="CGvsTR9XaRbPzgTNPZg9-40" value="size: INT64" style="shape=partialRectangle;html=1;whiteSpace=wrap;connectable=0;fillColor=none;top=0;left=0;bottom=0;right=0;overflow=hidden;fontSize=12;fontColor=#000000;" parent="CGvsTR9XaRbPzgTNPZg9-37" vertex="1">
          <mxGeometry x="213" width="117" height="42" as="geometry">
            <mxRectangle width="117" height="42" as="alternateBounds" />
          </mxGeometry>
        </mxCell>
        <mxCell id="CGvsTR9XaRbPzgTNPZg9-105" value="blksize:INT64" style="shape=partialRectangle;html=1;whiteSpace=wrap;connectable=0;fillColor=none;top=0;left=0;bottom=0;right=0;overflow=hidden;fontSize=12;fontColor=#000000;" parent="CGvsTR9XaRbPzgTNPZg9-37" vertex="1">
          <mxGeometry x="330" width="107" height="42" as="geometry">
            <mxRectangle width="107" height="42" as="alternateBounds" />
          </mxGeometry>
        </mxCell>
        <mxCell id="CGvsTR9XaRbPzgTNPZg9-113" value="blocks:INT64" style="shape=partialRectangle;html=1;whiteSpace=wrap;connectable=0;fillColor=none;top=0;left=0;bottom=0;right=0;overflow=hidden;fontSize=12;fontColor=#000000;" parent="CGvsTR9XaRbPzgTNPZg9-37" vertex="1">
          <mxGeometry x="437" width="106" height="42" as="geometry">
            <mxRectangle width="106" height="42" as="alternateBounds" />
          </mxGeometry>
        </mxCell>
        <mxCell id="CGvsTR9XaRbPzgTNPZg9-121" value="atime: INT64" style="shape=partialRectangle;html=1;whiteSpace=wrap;connectable=0;fillColor=none;top=0;left=0;bottom=0;right=0;overflow=hidden;fontSize=12;fontColor=#000000;" parent="CGvsTR9XaRbPzgTNPZg9-37" vertex="1">
          <mxGeometry x="543" width="117" height="42" as="geometry">
            <mxRectangle width="117" height="42" as="alternateBounds" />
          </mxGeometry>
        </mxCell>
        <mxCell id="CGvsTR9XaRbPzgTNPZg9-41" value="" style="shape=tableRow;horizontal=0;startSize=0;swimlaneHead=0;swimlaneBody=0;top=0;left=0;bottom=0;right=0;collapsible=0;dropTarget=0;fillColor=none;points=[[0,0.5],[1,0.5]];portConstraint=eastwest;fontColor=#000000;" parent="CGvsTR9XaRbPzgTNPZg9-32" vertex="1">
          <mxGeometry y="84" width="660" height="42" as="geometry" />
        </mxCell>
        <mxCell id="CGvsTR9XaRbPzgTNPZg9-42" value="mtime: INT64" style="shape=partialRectangle;html=1;whiteSpace=wrap;connectable=0;fillColor=none;top=0;left=0;bottom=0;right=0;overflow=hidden;fontSize=12;fontColor=#000000;" parent="CGvsTR9XaRbPzgTNPZg9-41" vertex="1">
          <mxGeometry width="107" height="42" as="geometry">
            <mxRectangle width="107" height="42" as="alternateBounds" />
          </mxGeometry>
        </mxCell>
        <mxCell id="CGvsTR9XaRbPzgTNPZg9-43" value="ctime: INT64" style="shape=partialRectangle;html=1;whiteSpace=wrap;connectable=0;fillColor=none;top=0;left=0;bottom=0;right=0;overflow=hidden;fontSize=12;fontColor=#000000;" parent="CGvsTR9XaRbPzgTNPZg9-41" vertex="1">
          <mxGeometry x="107" width="106" height="42" as="geometry">
            <mxRectangle width="106" height="42" as="alternateBounds" />
          </mxGeometry>
        </mxCell>
        <mxCell id="CGvsTR9XaRbPzgTNPZg9-44" value="linkname: TEXT" style="shape=partialRectangle;html=1;whiteSpace=wrap;connectable=0;fillColor=none;top=0;left=0;bottom=0;right=0;overflow=hidden;fontSize=12;fontColor=#000000;" parent="CGvsTR9XaRbPzgTNPZg9-41" vertex="1">
          <mxGeometry x="213" width="117" height="42" as="geometry">
            <mxRectangle width="117" height="42" as="alternateBounds" />
          </mxGeometry>
        </mxCell>
        <mxCell id="CGvsTR9XaRbPzgTNPZg9-106" value="xattr_names: BLOB" style="shape=partialRectangle;html=1;whiteSpace=wrap;connectable=0;fillColor=none;top=0;left=0;bottom=0;right=0;overflow=hidden;fontSize=12;fontColor=#000000;" parent="CGvsTR9XaRbPzgTNPZg9-41" vertex="1">
          <mxGeometry x="330" width="107" height="42" as="geometry">
            <mxRectangle width="107" height="42" as="alternateBounds" />
          </mxGeometry>
        </mxCell>
        <mxCell id="CGvsTR9XaRbPzgTNPZg9-114" value="totfiles: INT64" style="shape=partialRectangle;html=1;whiteSpace=wrap;connectable=0;fillColor=none;top=0;left=0;bottom=0;right=0;overflow=hidden;fontSize=12;fontColor=#000000;" parent="CGvsTR9XaRbPzgTNPZg9-41" vertex="1">
          <mxGeometry x="437" width="106" height="42" as="geometry">
            <mxRectangle width="106" height="42" as="alternateBounds" />
          </mxGeometry>
        </mxCell>
        <mxCell id="CGvsTR9XaRbPzgTNPZg9-122" value="totlinks: INT64" style="shape=partialRectangle;html=1;whiteSpace=wrap;connectable=0;fillColor=none;top=0;left=0;bottom=0;right=0;overflow=hidden;fontSize=12;fontColor=#000000;" parent="CGvsTR9XaRbPzgTNPZg9-41" vertex="1">
          <mxGeometry x="543" width="117" height="42" as="geometry">
            <mxRectangle width="117" height="42" as="alternateBounds" />
          </mxGeometry>
        </mxCell>
        <mxCell id="CGvsTR9XaRbPzgTNPZg9-84" value="" style="shape=tableRow;horizontal=0;startSize=0;swimlaneHead=0;swimlaneBody=0;top=0;left=0;bottom=0;right=0;collapsible=0;dropTarget=0;fillColor=none;points=[[0,0.5],[1,0.5]];portConstraint=eastwest;fontColor=#000000;" parent="CGvsTR9XaRbPzgTNPZg9-32" vertex="1">
          <mxGeometry y="126" width="660" height="42" as="geometry" />
        </mxCell>
        <mxCell id="CGvsTR9XaRbPzgTNPZg9-85" value="minuid: INT64" style="shape=partialRectangle;html=1;whiteSpace=wrap;connectable=0;fillColor=none;top=0;left=0;bottom=0;right=0;overflow=hidden;fontSize=12;fontColor=#000000;" parent="CGvsTR9XaRbPzgTNPZg9-84" vertex="1">
          <mxGeometry width="107" height="42" as="geometry">
            <mxRectangle width="107" height="42" as="alternateBounds" />
          </mxGeometry>
        </mxCell>
        <mxCell id="CGvsTR9XaRbPzgTNPZg9-86" value="maxuid: INT64" style="shape=partialRectangle;html=1;whiteSpace=wrap;connectable=0;fillColor=none;top=0;left=0;bottom=0;right=0;overflow=hidden;fontSize=12;fontColor=#000000;" parent="CGvsTR9XaRbPzgTNPZg9-84" vertex="1">
          <mxGeometry x="107" width="106" height="42" as="geometry">
            <mxRectangle width="106" height="42" as="alternateBounds" />
          </mxGeometry>
        </mxCell>
        <mxCell id="CGvsTR9XaRbPzgTNPZg9-87" value="mingid: INT64" style="shape=partialRectangle;html=1;whiteSpace=wrap;connectable=0;fillColor=none;top=0;left=0;bottom=0;right=0;overflow=hidden;fontSize=12;fontColor=#000000;" parent="CGvsTR9XaRbPzgTNPZg9-84" vertex="1">
          <mxGeometry x="213" width="117" height="42" as="geometry">
            <mxRectangle width="117" height="42" as="alternateBounds" />
          </mxGeometry>
        </mxCell>
        <mxCell id="CGvsTR9XaRbPzgTNPZg9-107" value="maxgid: INT64" style="shape=partialRectangle;html=1;whiteSpace=wrap;connectable=0;fillColor=none;top=0;left=0;bottom=0;right=0;overflow=hidden;fontSize=12;fontColor=#000000;" parent="CGvsTR9XaRbPzgTNPZg9-84" vertex="1">
          <mxGeometry x="330" width="107" height="42" as="geometry">
            <mxRectangle width="107" height="42" as="alternateBounds" />
          </mxGeometry>
        </mxCell>
        <mxCell id="CGvsTR9XaRbPzgTNPZg9-115" value="minsize: INT64" style="shape=partialRectangle;html=1;whiteSpace=wrap;connectable=0;fillColor=none;top=0;left=0;bottom=0;right=0;overflow=hidden;fontSize=12;fontColor=#000000;" parent="CGvsTR9XaRbPzgTNPZg9-84" vertex="1">
          <mxGeometry x="437" width="106" height="42" as="geometry">
            <mxRectangle width="106" height="42" as="alternateBounds" />
          </mxGeometry>
        </mxCell>
        <mxCell id="CGvsTR9XaRbPzgTNPZg9-123" value="maxsize: INT64" style="shape=partialRectangle;html=1;whiteSpace=wrap;connectable=0;fillColor=none;top=0;left=0;bottom=0;right=0;overflow=hidden;fontSize=12;fontColor=#000000;" parent="CGvsTR9XaRbPzgTNPZg9-84" vertex="1">
          <mxGeometry x="543" width="117" height="42" as="geometry">
            <mxRectangle width="117" height="42" as="alternateBounds" />
          </mxGeometry>
        </mxCell>
        <mxCell id="CGvsTR9XaRbPzgTNPZg9-88" value="" style="shape=tableRow;horizontal=0;startSize=0;swimlaneHead=0;swimlaneBody=0;top=0;left=0;bottom=0;right=0;collapsible=0;dropTarget=0;fillColor=none;points=[[0,0.5],[1,0.5]];portConstraint=eastwest;fontColor=#000000;" parent="CGvsTR9XaRbPzgTNPZg9-32" vertex="1">
          <mxGeometry y="168" width="660" height="42" as="geometry" />
        </mxCell>
        <mxCell id="CGvsTR9XaRbPzgTNPZg9-89" value="totzero: INT16" style="shape=partialRectangle;html=1;whiteSpace=wrap;connectable=0;fillColor=none;top=0;left=0;bottom=0;right=0;overflow=hidden;fontSize=12;fontColor=#000000;" parent="CGvsTR9XaRbPzgTNPZg9-88" vertex="1">
          <mxGeometry width="107" height="42" as="geometry">
            <mxRectangle width="107" height="42" as="alternateBounds" />
          </mxGeometry>
        </mxCell>
        <mxCell id="CGvsTR9XaRbPzgTNPZg9-90" value="totltk: INT64" style="shape=partialRectangle;html=1;whiteSpace=wrap;connectable=0;fillColor=none;top=0;left=0;bottom=0;right=0;overflow=hidden;fontSize=12;fontColor=#000000;" parent="CGvsTR9XaRbPzgTNPZg9-88" vertex="1">
          <mxGeometry x="107" width="106" height="42" as="geometry">
            <mxRectangle width="106" height="42" as="alternateBounds" />
          </mxGeometry>
        </mxCell>
        <mxCell id="CGvsTR9XaRbPzgTNPZg9-91" value="totmtk: INT64" style="shape=partialRectangle;html=1;whiteSpace=wrap;connectable=0;fillColor=none;top=0;left=0;bottom=0;right=0;overflow=hidden;fontSize=12;fontColor=#000000;" parent="CGvsTR9XaRbPzgTNPZg9-88" vertex="1">
          <mxGeometry x="213" width="117" height="42" as="geometry">
            <mxRectangle width="117" height="42" as="alternateBounds" />
          </mxGeometry>
        </mxCell>
        <mxCell id="CGvsTR9XaRbPzgTNPZg9-108" value="totltm: INT64" style="shape=partialRectangle;html=1;whiteSpace=wrap;connectable=0;fillColor=none;top=0;left=0;bottom=0;right=0;overflow=hidden;fontSize=12;fontColor=#000000;" parent="CGvsTR9XaRbPzgTNPZg9-88" vertex="1">
          <mxGeometry x="330" width="107" height="42" as="geometry">
            <mxRectangle width="107" height="42" as="alternateBounds" />
          </mxGeometry>
        </mxCell>
        <mxCell id="CGvsTR9XaRbPzgTNPZg9-116" value="&#xa;&lt;span style=&quot;color: rgb(0, 0, 0); font-family: Helvetica; font-size: 12px; font-style: normal; font-variant-ligatures: normal; font-variant-caps: normal; font-weight: 400; letter-spacing: normal; orphans: 2; text-align: center; text-indent: 0px; text-transform: none; widows: 2; word-spacing: 0px; -webkit-text-stroke-width: 0px; background-color: rgb(251, 251, 251); text-decoration-thickness: initial; text-decoration-style: initial; text-decoration-color: initial; float: none; display: inline !important;&quot;&gt;totmtm: INT64&lt;/span&gt;&#xa;&#xa;" style="shape=partialRectangle;html=1;whiteSpace=wrap;connectable=0;fillColor=none;top=0;left=0;bottom=0;right=0;overflow=hidden;fontSize=12;fontColor=#000000;" parent="CGvsTR9XaRbPzgTNPZg9-88" vertex="1">
          <mxGeometry x="437" width="106" height="42" as="geometry">
            <mxRectangle width="106" height="42" as="alternateBounds" />
          </mxGeometry>
        </mxCell>
        <mxCell id="CGvsTR9XaRbPzgTNPZg9-124" value="&#xa;&lt;span style=&quot;color: rgb(0, 0, 0); font-family: Helvetica; font-size: 12px; font-style: normal; font-variant-ligatures: normal; font-variant-caps: normal; font-weight: 400; letter-spacing: normal; orphans: 2; text-align: center; text-indent: 0px; text-transform: none; widows: 2; word-spacing: 0px; -webkit-text-stroke-width: 0px; background-color: rgb(251, 251, 251); text-decoration-thickness: initial; text-decoration-style: initial; text-decoration-color: initial; float: none; display: inline !important;&quot;&gt;totmtg: INT64&lt;/span&gt;&#xa;&#xa;" style="shape=partialRectangle;html=1;whiteSpace=wrap;connectable=0;fillColor=none;top=0;left=0;bottom=0;right=0;overflow=hidden;fontSize=12;fontColor=#000000;" parent="CGvsTR9XaRbPzgTNPZg9-88" vertex="1">
          <mxGeometry x="543" width="117" height="42" as="geometry">
            <mxRectangle width="117" height="42" as="alternateBounds" />
          </mxGeometry>
        </mxCell>
        <mxCell id="CGvsTR9XaRbPzgTNPZg9-92" value="" style="shape=tableRow;horizontal=0;startSize=0;swimlaneHead=0;swimlaneBody=0;top=0;left=0;bottom=0;right=0;collapsible=0;dropTarget=0;fillColor=none;points=[[0,0.5],[1,0.5]];portConstraint=eastwest;fontColor=#000000;" parent="CGvsTR9XaRbPzgTNPZg9-32" vertex="1">
          <mxGeometry y="210" width="660" height="42" as="geometry" />
        </mxCell>
        <mxCell id="CGvsTR9XaRbPzgTNPZg9-93" value="&#xa;&lt;span style=&quot;color: rgb(0, 0, 0); font-family: Helvetica; font-size: 12px; font-style: normal; font-variant-ligatures: normal; font-variant-caps: normal; font-weight: 400; letter-spacing: normal; orphans: 2; text-align: center; text-indent: 0px; text-transform: none; widows: 2; word-spacing: 0px; -webkit-text-stroke-width: 0px; background-color: rgb(251, 251, 251); text-decoration-thickness: initial; text-decoration-style: initial; text-decoration-color: initial; float: none; display: inline !important;&quot;&gt;totmtt: INT64&lt;/span&gt;&#xa;&#xa;" style="shape=partialRectangle;html=1;whiteSpace=wrap;connectable=0;fillColor=none;top=0;left=0;bottom=0;right=0;overflow=hidden;fontSize=12;fontColor=#000000;" parent="CGvsTR9XaRbPzgTNPZg9-92" vertex="1">
          <mxGeometry width="107" height="42" as="geometry">
            <mxRectangle width="107" height="42" as="alternateBounds" />
          </mxGeometry>
        </mxCell>
        <mxCell id="CGvsTR9XaRbPzgTNPZg9-94" value="&#xa;&lt;span style=&quot;color: rgb(0, 0, 0); font-family: Helvetica; font-size: 12px; font-style: normal; font-variant-ligatures: normal; font-variant-caps: normal; font-weight: 400; letter-spacing: normal; orphans: 2; text-align: center; text-indent: 0px; text-transform: none; widows: 2; word-spacing: 0px; -webkit-text-stroke-width: 0px; background-color: rgb(251, 251, 251); text-decoration-thickness: initial; text-decoration-style: initial; text-decoration-color: initial; float: none; display: inline !important;&quot;&gt;totsize: INT64&lt;/span&gt;&#xa;&#xa;" style="shape=partialRectangle;html=1;whiteSpace=wrap;connectable=0;fillColor=none;top=0;left=0;bottom=0;right=0;overflow=hidden;fontSize=12;fontColor=#000000;" parent="CGvsTR9XaRbPzgTNPZg9-92" vertex="1">
          <mxGeometry x="107" width="106" height="42" as="geometry">
            <mxRectangle width="106" height="42" as="alternateBounds" />
          </mxGeometry>
        </mxCell>
        <mxCell id="CGvsTR9XaRbPzgTNPZg9-95" value="minctime: INT64" style="shape=partialRectangle;html=1;whiteSpace=wrap;connectable=0;fillColor=none;top=0;left=0;bottom=0;right=0;overflow=hidden;fontSize=12;fontColor=#000000;" parent="CGvsTR9XaRbPzgTNPZg9-92" vertex="1">
          <mxGeometry x="213" width="117" height="42" as="geometry">
            <mxRectangle width="117" height="42" as="alternateBounds" />
          </mxGeometry>
        </mxCell>
        <mxCell id="CGvsTR9XaRbPzgTNPZg9-109" value="&#xa;&lt;span style=&quot;color: rgb(0, 0, 0); font-family: Helvetica; font-size: 12px; font-style: normal; font-variant-ligatures: normal; font-variant-caps: normal; font-weight: 400; letter-spacing: normal; orphans: 2; text-align: center; text-indent: 0px; text-transform: none; widows: 2; word-spacing: 0px; -webkit-text-stroke-width: 0px; background-color: rgb(251, 251, 251); text-decoration-thickness: initial; text-decoration-style: initial; text-decoration-color: initial; float: none; display: inline !important;&quot;&gt;maxctime: INT64&lt;/span&gt;&#xa;&#xa;" style="shape=partialRectangle;html=1;whiteSpace=wrap;connectable=0;fillColor=none;top=0;left=0;bottom=0;right=0;overflow=hidden;fontSize=12;fontColor=#000000;" parent="CGvsTR9XaRbPzgTNPZg9-92" vertex="1">
          <mxGeometry x="330" width="107" height="42" as="geometry">
            <mxRectangle width="107" height="42" as="alternateBounds" />
          </mxGeometry>
        </mxCell>
        <mxCell id="CGvsTR9XaRbPzgTNPZg9-117" value="minmtime: INT64" style="shape=partialRectangle;html=1;whiteSpace=wrap;connectable=0;fillColor=none;top=0;left=0;bottom=0;right=0;overflow=hidden;fontSize=12;fontColor=#000000;" parent="CGvsTR9XaRbPzgTNPZg9-92" vertex="1">
          <mxGeometry x="437" width="106" height="42" as="geometry">
            <mxRectangle width="106" height="42" as="alternateBounds" />
          </mxGeometry>
        </mxCell>
        <mxCell id="CGvsTR9XaRbPzgTNPZg9-125" value="maxmtime: INT64" style="shape=partialRectangle;html=1;whiteSpace=wrap;connectable=0;fillColor=none;top=0;left=0;bottom=0;right=0;overflow=hidden;fontSize=12;fontColor=#000000;" parent="CGvsTR9XaRbPzgTNPZg9-92" vertex="1">
          <mxGeometry x="543" width="117" height="42" as="geometry">
            <mxRectangle width="117" height="42" as="alternateBounds" />
          </mxGeometry>
        </mxCell>
        <mxCell id="CGvsTR9XaRbPzgTNPZg9-96" value="" style="shape=tableRow;horizontal=0;startSize=0;swimlaneHead=0;swimlaneBody=0;top=0;left=0;bottom=0;right=0;collapsible=0;dropTarget=0;fillColor=none;points=[[0,0.5],[1,0.5]];portConstraint=eastwest;fontColor=#000000;" parent="CGvsTR9XaRbPzgTNPZg9-32" vertex="1">
          <mxGeometry y="252" width="660" height="42" as="geometry" />
        </mxCell>
        <mxCell id="CGvsTR9XaRbPzgTNPZg9-97" value="minatime: INT64" style="shape=partialRectangle;html=1;whiteSpace=wrap;connectable=0;fillColor=none;top=0;left=0;bottom=0;right=0;overflow=hidden;fontSize=12;fontColor=#000000;" parent="CGvsTR9XaRbPzgTNPZg9-96" vertex="1">
          <mxGeometry width="107" height="42" as="geometry">
            <mxRectangle width="107" height="42" as="alternateBounds" />
          </mxGeometry>
        </mxCell>
        <mxCell id="CGvsTR9XaRbPzgTNPZg9-98" value="maxatime: INT64" style="shape=partialRectangle;html=1;whiteSpace=wrap;connectable=0;fillColor=none;top=0;left=0;bottom=0;right=0;overflow=hidden;fontSize=12;fontColor=#000000;" parent="CGvsTR9XaRbPzgTNPZg9-96" vertex="1">
          <mxGeometry x="107" width="106" height="42" as="geometry">
            <mxRectangle width="106" height="42" as="alternateBounds" />
          </mxGeometry>
        </mxCell>
        <mxCell id="CGvsTR9XaRbPzgTNPZg9-99" value="minblocks: INT64" style="shape=partialRectangle;html=1;whiteSpace=wrap;connectable=0;fillColor=none;top=0;left=0;bottom=0;right=0;overflow=hidden;fontSize=12;fontColor=#000000;" parent="CGvsTR9XaRbPzgTNPZg9-96" vertex="1">
          <mxGeometry x="213" width="117" height="42" as="geometry">
            <mxRectangle width="117" height="42" as="alternateBounds" />
          </mxGeometry>
        </mxCell>
        <mxCell id="CGvsTR9XaRbPzgTNPZg9-110" value="maxblocks:INT64" style="shape=partialRectangle;html=1;whiteSpace=wrap;connectable=0;fillColor=none;top=0;left=0;bottom=0;right=0;overflow=hidden;fontSize=12;fontColor=#000000;" parent="CGvsTR9XaRbPzgTNPZg9-96" vertex="1">
          <mxGeometry x="330" width="107" height="42" as="geometry">
            <mxRectangle width="107" height="42" as="alternateBounds" />
          </mxGeometry>
        </mxCell>
        <mxCell id="CGvsTR9XaRbPzgTNPZg9-118" value="totxattr: INT64" style="shape=partialRectangle;html=1;whiteSpace=wrap;connectable=0;fillColor=none;top=0;left=0;bottom=0;right=0;overflow=hidden;fontSize=12;fontColor=#000000;" parent="CGvsTR9XaRbPzgTNPZg9-96" vertex="1">
          <mxGeometry x="437" width="106" height="42" as="geometry">
            <mxRectangle width="106" height="42" as="alternateBounds" />
          </mxGeometry>
        </mxCell>
        <mxCell id="CGvsTR9XaRbPzgTNPZg9-126" value="depth: INT64" style="shape=partialRectangle;html=1;whiteSpace=wrap;connectable=0;fillColor=none;top=0;left=0;bottom=0;right=0;overflow=hidden;fontSize=12;fontColor=#000000;" parent="CGvsTR9XaRbPzgTNPZg9-96" vertex="1">
          <mxGeometry x="543" width="117" height="42" as="geometry">
            <mxRectangle width="117" height="42" as="alternateBounds" />
          </mxGeometry>
        </mxCell>
        <mxCell id="CGvsTR9XaRbPzgTNPZg9-100" value="" style="shape=tableRow;horizontal=0;startSize=0;swimlaneHead=0;swimlaneBody=0;top=0;left=0;bottom=0;right=0;collapsible=0;dropTarget=0;fillColor=none;points=[[0,0.5],[1,0.5]];portConstraint=eastwest;fontColor=#000000;" parent="CGvsTR9XaRbPzgTNPZg9-32" vertex="1">
          <mxGeometry y="294" width="660" height="42" as="geometry" />
        </mxCell>
        <mxCell id="CGvsTR9XaRbPzgTNPZg9-101" value="mincrtime: INT64" style="shape=partialRectangle;html=1;whiteSpace=wrap;connectable=0;fillColor=none;top=0;left=0;bottom=0;right=0;overflow=hidden;fontSize=12;fontColor=#000000;" parent="CGvsTR9XaRbPzgTNPZg9-100" vertex="1">
          <mxGeometry width="107" height="42" as="geometry">
            <mxRectangle width="107" height="42" as="alternateBounds" />
          </mxGeometry>
        </mxCell>
        <mxCell id="CGvsTR9XaRbPzgTNPZg9-102" value="maxcrtime: INT64" style="shape=partialRectangle;html=1;whiteSpace=wrap;connectable=0;fillColor=none;top=0;left=0;bottom=0;right=0;overflow=hidden;fontSize=12;fontColor=#000000;" parent="CGvsTR9XaRbPzgTNPZg9-100" vertex="1">
          <mxGeometry x="107" width="106" height="42" as="geometry">
            <mxRectangle width="106" height="42" as="alternateBounds" />
          </mxGeometry>
        </mxCell>
        <mxCell id="CGvsTR9XaRbPzgTNPZg9-103" value="minossint1: INT64" style="shape=partialRectangle;html=1;whiteSpace=wrap;connectable=0;fillColor=none;top=0;left=0;bottom=0;right=0;overflow=hidden;fontSize=12;fontColor=#000000;" parent="CGvsTR9XaRbPzgTNPZg9-100" vertex="1">
          <mxGeometry x="213" width="117" height="42" as="geometry">
            <mxRectangle width="117" height="42" as="alternateBounds" />
          </mxGeometry>
        </mxCell>
        <mxCell id="CGvsTR9XaRbPzgTNPZg9-111" value="&#xa;&lt;span style=&quot;color: rgb(0, 0, 0); font-family: Helvetica; font-size: 12px; font-style: normal; font-variant-ligatures: normal; font-variant-caps: normal; font-weight: 400; letter-spacing: normal; orphans: 2; text-align: center; text-indent: 0px; text-transform: none; widows: 2; word-spacing: 0px; -webkit-text-stroke-width: 0px; background-color: rgb(251, 251, 251); text-decoration-thickness: initial; text-decoration-style: initial; text-decoration-color: initial; float: none; display: inline !important;&quot;&gt;maxossint1: INT64&lt;/span&gt;&#xa;&#xa;" style="shape=partialRectangle;html=1;whiteSpace=wrap;connectable=0;fillColor=none;top=0;left=0;bottom=0;right=0;overflow=hidden;fontSize=12;fontColor=#000000;" parent="CGvsTR9XaRbPzgTNPZg9-100" vertex="1">
          <mxGeometry x="330" width="107" height="42" as="geometry">
            <mxRectangle width="107" height="42" as="alternateBounds" />
          </mxGeometry>
        </mxCell>
        <mxCell id="CGvsTR9XaRbPzgTNPZg9-119" value="&#xa;&lt;span style=&quot;color: rgb(0, 0, 0); font-family: Helvetica; font-size: 12px; font-style: normal; font-variant-ligatures: normal; font-variant-caps: normal; font-weight: 400; letter-spacing: normal; orphans: 2; text-align: center; text-indent: 0px; text-transform: none; widows: 2; word-spacing: 0px; -webkit-text-stroke-width: 0px; background-color: rgb(251, 251, 251); text-decoration-thickness: initial; text-decoration-style: initial; text-decoration-color: initial; float: none; display: inline !important;&quot;&gt;totossint1: INT64&lt;/span&gt;&#xa;&#xa;" style="shape=partialRectangle;html=1;whiteSpace=wrap;connectable=0;fillColor=none;top=0;left=0;bottom=0;right=0;overflow=hidden;fontSize=12;fontColor=#000000;" parent="CGvsTR9XaRbPzgTNPZg9-100" vertex="1">
          <mxGeometry x="437" width="106" height="42" as="geometry">
            <mxRectangle width="106" height="42" as="alternateBounds" />
          </mxGeometry>
        </mxCell>
        <mxCell id="CGvsTR9XaRbPzgTNPZg9-127" value="minossint2: INT64" style="shape=partialRectangle;html=1;whiteSpace=wrap;connectable=0;fillColor=none;top=0;left=0;bottom=0;right=0;overflow=hidden;fontSize=12;fontColor=#000000;" parent="CGvsTR9XaRbPzgTNPZg9-100" vertex="1">
          <mxGeometry x="543" width="117" height="42" as="geometry">
            <mxRectangle width="117" height="42" as="alternateBounds" />
          </mxGeometry>
        </mxCell>
        <mxCell id="CGvsTR9XaRbPzgTNPZg9-135" style="shape=tableRow;horizontal=0;startSize=0;swimlaneHead=0;swimlaneBody=0;top=0;left=0;bottom=0;right=0;collapsible=0;dropTarget=0;fillColor=none;points=[[0,0.5],[1,0.5]];portConstraint=eastwest;fontColor=#000000;" parent="CGvsTR9XaRbPzgTNPZg9-32" vertex="1">
          <mxGeometry y="336" width="660" height="42" as="geometry" />
        </mxCell>
        <mxCell id="CGvsTR9XaRbPzgTNPZg9-136" value="maxossint2: INT64" style="shape=partialRectangle;html=1;whiteSpace=wrap;connectable=0;fillColor=none;top=0;left=0;bottom=0;right=0;overflow=hidden;fontSize=12;fontColor=#000000;" parent="CGvsTR9XaRbPzgTNPZg9-135" vertex="1">
          <mxGeometry width="107" height="42" as="geometry">
            <mxRectangle width="107" height="42" as="alternateBounds" />
          </mxGeometry>
        </mxCell>
        <mxCell id="CGvsTR9XaRbPzgTNPZg9-137" value="&#xa;&lt;span style=&quot;color: rgb(0, 0, 0); font-family: Helvetica; font-size: 12px; font-style: normal; font-variant-ligatures: normal; font-variant-caps: normal; font-weight: 400; letter-spacing: normal; orphans: 2; text-align: center; text-indent: 0px; text-transform: none; widows: 2; word-spacing: 0px; -webkit-text-stroke-width: 0px; background-color: rgb(251, 251, 251); text-decoration-thickness: initial; text-decoration-style: initial; text-decoration-color: initial; float: none; display: inline !important;&quot;&gt;totossint2: INT64&lt;/span&gt;&#xa;&#xa;" style="shape=partialRectangle;html=1;whiteSpace=wrap;connectable=0;fillColor=none;top=0;left=0;bottom=0;right=0;overflow=hidden;fontSize=12;fontColor=#000000;" parent="CGvsTR9XaRbPzgTNPZg9-135" vertex="1">
          <mxGeometry x="107" width="106" height="42" as="geometry">
            <mxRectangle width="106" height="42" as="alternateBounds" />
          </mxGeometry>
        </mxCell>
        <mxCell id="CGvsTR9XaRbPzgTNPZg9-138" value="minossint3: INT64" style="shape=partialRectangle;html=1;whiteSpace=wrap;connectable=0;fillColor=none;top=0;left=0;bottom=0;right=0;overflow=hidden;fontSize=12;fontColor=#000000;" parent="CGvsTR9XaRbPzgTNPZg9-135" vertex="1">
          <mxGeometry x="213" width="117" height="42" as="geometry">
            <mxRectangle width="117" height="42" as="alternateBounds" />
          </mxGeometry>
        </mxCell>
        <mxCell id="CGvsTR9XaRbPzgTNPZg9-139" value="&#xa;&lt;span style=&quot;color: rgb(0, 0, 0); font-family: Helvetica; font-size: 12px; font-style: normal; font-variant-ligatures: normal; font-variant-caps: normal; font-weight: 400; letter-spacing: normal; orphans: 2; text-align: center; text-indent: 0px; text-transform: none; widows: 2; word-spacing: 0px; -webkit-text-stroke-width: 0px; background-color: rgb(251, 251, 251); text-decoration-thickness: initial; text-decoration-style: initial; text-decoration-color: initial; float: none; display: inline !important;&quot;&gt;maxossint3: INT64&lt;/span&gt;&#xa;&#xa;" style="shape=partialRectangle;html=1;whiteSpace=wrap;connectable=0;fillColor=none;top=0;left=0;bottom=0;right=0;overflow=hidden;fontSize=12;fontColor=#000000;" parent="CGvsTR9XaRbPzgTNPZg9-135" vertex="1">
          <mxGeometry x="330" width="107" height="42" as="geometry">
            <mxRectangle width="107" height="42" as="alternateBounds" />
          </mxGeometry>
        </mxCell>
        <mxCell id="CGvsTR9XaRbPzgTNPZg9-140" value="totossint3: INT64" style="shape=partialRectangle;html=1;whiteSpace=wrap;connectable=0;fillColor=none;top=0;left=0;bottom=0;right=0;overflow=hidden;fontSize=12;fontColor=#000000;" parent="CGvsTR9XaRbPzgTNPZg9-135" vertex="1">
          <mxGeometry x="437" width="106" height="42" as="geometry">
            <mxRectangle width="106" height="42" as="alternateBounds" />
          </mxGeometry>
        </mxCell>
        <mxCell id="CGvsTR9XaRbPzgTNPZg9-141" value="minossint4: INT64" style="shape=partialRectangle;html=1;whiteSpace=wrap;connectable=0;fillColor=none;top=0;left=0;bottom=0;right=0;overflow=hidden;fontSize=12;fontColor=#000000;" parent="CGvsTR9XaRbPzgTNPZg9-135" vertex="1">
          <mxGeometry x="543" width="117" height="42" as="geometry">
            <mxRectangle width="117" height="42" as="alternateBounds" />
          </mxGeometry>
        </mxCell>
        <mxCell id="CGvsTR9XaRbPzgTNPZg9-128" style="shape=tableRow;horizontal=0;startSize=0;swimlaneHead=0;swimlaneBody=0;top=0;left=0;bottom=0;right=0;collapsible=0;dropTarget=0;fillColor=none;points=[[0,0.5],[1,0.5]];portConstraint=eastwest;fontColor=#000000;" parent="CGvsTR9XaRbPzgTNPZg9-32" vertex="1">
          <mxGeometry y="378" width="660" height="42" as="geometry" />
        </mxCell>
        <mxCell id="CGvsTR9XaRbPzgTNPZg9-129" value="maxossint4: INT64" style="shape=partialRectangle;html=1;whiteSpace=wrap;connectable=0;fillColor=none;top=0;left=0;bottom=0;right=0;overflow=hidden;fontSize=12;fontColor=#000000;" parent="CGvsTR9XaRbPzgTNPZg9-128" vertex="1">
          <mxGeometry width="107" height="42" as="geometry">
            <mxRectangle width="107" height="42" as="alternateBounds" />
          </mxGeometry>
        </mxCell>
        <mxCell id="CGvsTR9XaRbPzgTNPZg9-130" value="totossint4: INT64" style="shape=partialRectangle;html=1;whiteSpace=wrap;connectable=0;fillColor=none;top=0;left=0;bottom=0;right=0;overflow=hidden;fontSize=12;fontColor=#000000;" parent="CGvsTR9XaRbPzgTNPZg9-128" vertex="1">
          <mxGeometry x="107" width="106" height="42" as="geometry">
            <mxRectangle width="106" height="42" as="alternateBounds" />
          </mxGeometry>
        </mxCell>
        <mxCell id="CGvsTR9XaRbPzgTNPZg9-131" value="rectype: INT64" style="shape=partialRectangle;html=1;whiteSpace=wrap;connectable=0;fillColor=none;top=0;left=0;bottom=0;right=0;overflow=hidden;fontSize=12;fontColor=#000000;" parent="CGvsTR9XaRbPzgTNPZg9-128" vertex="1">
          <mxGeometry x="213" width="117" height="42" as="geometry">
            <mxRectangle width="117" height="42" as="alternateBounds" />
          </mxGeometry>
        </mxCell>
        <mxCell id="CGvsTR9XaRbPzgTNPZg9-132" value="pinode: TEXT" style="shape=partialRectangle;html=1;whiteSpace=wrap;connectable=0;fillColor=none;top=0;left=0;bottom=0;right=0;overflow=hidden;fontSize=12;fontColor=#000000;" parent="CGvsTR9XaRbPzgTNPZg9-128" vertex="1">
          <mxGeometry x="330" width="107" height="42" as="geometry">
            <mxRectangle width="107" height="42" as="alternateBounds" />
          </mxGeometry>
        </mxCell>
        <mxCell id="CGvsTR9XaRbPzgTNPZg9-133" value="isroot: INT64" style="shape=partialRectangle;html=1;whiteSpace=wrap;connectable=0;fillColor=none;top=0;left=0;bottom=0;right=0;overflow=hidden;fontSize=12;fontColor=#000000;" parent="CGvsTR9XaRbPzgTNPZg9-128" vertex="1">
          <mxGeometry x="437" width="106" height="42" as="geometry">
            <mxRectangle width="106" height="42" as="alternateBounds" />
          </mxGeometry>
        </mxCell>
        <mxCell id="CGvsTR9XaRbPzgTNPZg9-134" value="rollupscore: INT64" style="shape=partialRectangle;html=1;whiteSpace=wrap;connectable=0;top=0;left=0;bottom=0;right=0;overflow=hidden;fontSize=12;" parent="CGvsTR9XaRbPzgTNPZg9-128" vertex="1">
          <mxGeometry x="543" width="117" height="42" as="geometry">
            <mxRectangle width="117" height="42" as="alternateBounds" />
          </mxGeometry>
        </mxCell>
        <mxCell id="H_drZzRzeJkwArdPm9RS-1" value="&lt;font style=&quot;font-size: 13px;&quot;&gt;pentries view&lt;/font&gt;" style="whiteSpace=wrap;html=1;aspect=fixed;" parent="1" vertex="1">
          <mxGeometry x="710" y="260" width="80" height="80" as="geometry" />
        </mxCell>
        <mxCell id="BJvOI7dVZWMjwS6u0NKj-38" value="" style="endArrow=classic;html=1;rounded=0;fontSize=12;startSize=8;endSize=8;edgeStyle=orthogonalEdgeStyle;entryX=0;entryY=0.5;entryDx=0;entryDy=0;" parent="1" target="H_drZzRzeJkwArdPm9RS-1" edge="1">
          <mxGeometry width="50" height="50" relative="1" as="geometry">
            <mxPoint x="380.0256410256411" y="90" as="sourcePoint" />
            <mxPoint x="710" y="288" as="targetPoint" />
            <Array as="points">
              <mxPoint x="380" y="98" />
              <mxPoint x="690" y="98" />
              <mxPoint x="690" y="300" />
            </Array>
          </mxGeometry>
        </mxCell>
        <mxCell id="BJvOI7dVZWMjwS6u0NKj-39" value="" style="endArrow=classic;html=1;rounded=0;fontSize=12;startSize=8;endSize=8;edgeStyle=orthogonalEdgeStyle;elbow=vertical;entryX=0.5;entryY=1;entryDx=0;entryDy=0;" parent="1" target="H_drZzRzeJkwArdPm9RS-1" edge="1">
          <mxGeometry width="50" height="50" relative="1" as="geometry">
            <mxPoint x="380" y="470" as="sourcePoint" />
            <mxPoint x="609" y="10" as="targetPoint" />
            <Array as="points">
              <mxPoint x="380" y="500" />
              <mxPoint x="750" y="500" />
            </Array>
          </mxGeometry>
        </mxCell>
      </root>
    </mxGraphModel>
  </diagram>
</mxfile>
